<?xml version="1.0" standalone="no"?>
<!DOCTYPE svg PUBLIC "-//W3C//DTD SVG 20010904//EN"
 "http://www.w3.org/TR/2001/REC-SVG-20010904/DTD/svg10.dtd">
<svg version="1.0" xmlns="http://www.w3.org/2000/svg"
 width="300.000000pt" height="300.000000pt" viewBox="0 0 300.000000 300.000000"
 preserveAspectRatio="xMidYMid meet">
<metadata>
Created by potrace 1.10, written by Peter Selinger 2001-2011
</metadata>
<g transform="translate(0.000000,300.000000) scale(0.100000,-0.100000)"
fill="#000000" stroke="none">
<path d="M1422 2521 c-18 -9 -30 -20 -27 -23 3 -3 -7 -9 -22 -12 -50 -12 -83
-28 -77 -38 3 -5 0 -8 -7 -7 -20 4 -59 -11 -59 -22 0 -5 -3 -8 -7 -7 -17 4
-53 -14 -47 -24 4 -7 2 -8 -4 -4 -12 7 -202 -78 -213 -95 -3 -6 -9 -10 -13
-10 -18 3 -25 -1 -50 -24 -15 -14 -35 -25 -45 -25 -10 0 -24 -7 -31 -15 -7 -8
-20 -15 -30 -15 -10 0 -23 -7 -30 -15 -7 -8 -17 -15 -23 -15 -5 0 -35 -12 -65
-26 -30 -14 -74 -34 -98 -44 -93 -40 -154 -74 -154 -85 0 -23 38 -46 186 -114
510 -233 593 -271 598 -271 5 0 259 -118 306 -143 l25 -13 -3 -567 c-3 -631
-8 -590 66 -544 85 54 450 256 562 311 30 15 109 56 175 91 66 35 139 74 162
86 23 11 46 26 52 33 14 17 21 704 7 709 -21 8 -200 -87 -214 -113 -10 -19
-12 -88 -10 -305 2 -154 -1 -290 -5 -301 -8 -24 -121 -89 -137 -79 -6 3 -10 0
-10 -8 0 -19 27 -29 48 -18 9 4 24 6 32 3 13 -5 13 -3 1 12 -12 14 -12 16 3
10 9 -3 16 -1 16 5 0 6 7 8 17 4 11 -4 14 -3 9 5 -4 7 -1 12 7 12 8 0 17 8 20
18 4 9 12 33 20 52 10 27 13 100 11 303 -2 257 -1 268 18 278 11 6 17 17 14
24 -5 15 17 27 38 19 8 -3 16 4 20 18 5 14 9 18 13 11 2 -7 9 -13 14 -13 6 0
7 5 4 10 -10 17 27 25 39 8 6 -8 18 -13 26 -10 12 4 11 1 -2 -15 -19 -21 -24
-63 -8 -63 6 0 10 -9 10 -21 0 -11 -4 -17 -10 -14 -6 3 -10 -4 -10 -17 0 -18
2 -20 10 -8 8 12 10 11 10 -7 0 -12 -6 -23 -12 -26 -10 -3 -9 -8 2 -22 11 -14
12 -19 3 -22 -15 -5 -17 -33 -3 -33 6 0 10 -5 10 -11 0 -5 -4 -7 -10 -4 -5 3
-10 -1 -10 -9 0 -9 5 -16 10 -16 14 0 13 -27 -2 -32 -7 -3 -9 -11 -3 -24 14
-34 18 -124 5 -139 -10 -12 -10 -19 1 -32 11 -13 11 -17 2 -20 -7 -3 -13 -9
-13 -14 0 -6 5 -7 11 -3 8 4 9 -1 4 -17 -11 -39 -39 -81 -57 -90 -10 -5 -26
-13 -35 -19 -68 -36 -119 -60 -130 -60 -7 0 -13 -5 -13 -11 0 -5 -4 -8 -9 -5
-5 4 -11 2 -13 -2 -3 -8 -30 -25 -114 -70 -42 -23 -180 -87 -187 -87 -4 0 -11
-4 -15 -10 -4 -5 -34 -23 -67 -40 -33 -16 -61 -33 -63 -37 -2 -5 -8 -8 -12 -8
-5 0 -43 -20 -83 -45 -41 -25 -78 -45 -82 -45 -5 0 -16 -6 -24 -14 -24 -20
-71 -29 -73 -14 0 7 -2 241 -3 521 -1 279 -5 510 -8 513 -5 5 173 104 187 104
7 0 -2 -209 -9 -220 -3 -6 -1 -10 5 -10 6 0 9 -8 6 -17 -7 -25 -8 -105 -4
-415 2 -146 -1 -264 -5 -261 -5 3 -3 -4 5 -16 12 -21 13 -20 19 16 18 104 15
963 -3 963 -5 0 -7 4 -3 9 4 7 -73 51 -89 51 -1 0 -2 -9 -3 -19 -1 -11 6 -21
18 -24 10 -3 19 -1 19 4 0 5 5 9 11 9 5 0 8 -4 5 -9 -3 -5 1 -11 9 -15 29 -11
14 -26 -77 -71 -90 -45 -91 -45 -112 -26 -19 17 -114 69 -133 73 -5 0 -48 20
-98 44 -132 62 -431 198 -500 227 -144 60 -336 158 -333 169 4 10 60 47 73 48
3 0 53 23 112 51 60 28 113 51 118 52 6 1 12 4 15 7 13 14 59 38 93 49 20 7
37 17 37 23 0 5 6 8 12 6 7 -3 21 4 32 13 10 10 23 16 27 13 4 -2 10 0 14 5 8
13 65 41 83 41 9 0 25 9 37 20 11 11 30 21 40 23 11 2 40 14 65 27 25 13 48
24 52 25 3 0 10 4 14 8 7 7 90 48 104 51 3 1 16 8 29 15 12 7 32 11 42 8 10
-3 17 -1 13 4 -3 5 2 9 10 9 9 0 16 -4 16 -10 0 -5 7 -10 16 -10 9 0 12 -5 8
-12 -4 -7 -4 -10 0 -6 4 3 32 -7 63 -23 30 -16 62 -29 70 -29 8 0 11 -4 8 -10
-3 -5 0 -8 7 -5 7 3 35 -6 62 -20 27 -14 52 -23 54 -20 10 10 -33 33 -90 51
-32 9 -58 21 -58 25 0 4 -17 13 -37 20 -21 6 -40 15 -43 18 -3 3 -21 14 -40
23 -19 9 -44 21 -55 26 -15 7 -29 5 -53 -7z"/>
<path d="M1816 2363 c-4 -4 11 -15 31 -24 45 -21 65 -24 41 -5 -10 7 -16 16
-13 19 3 4 2 5 -1 3 -3 -3 -16 -1 -29 4 -13 5 -26 6 -29 3z"/>
<path d="M1920 2324 c0 -22 47 -41 63 -25 9 10 8 11 -7 5 -15 -6 -17 -4 -11 6
5 9 4 11 -3 6 -7 -4 -12 -3 -12 2 0 6 -7 12 -15 16 -9 3 -15 0 -15 -10z"/>
<path d="M1407 2310 c-14 -12 -48 -30 -74 -41 -26 -12 -79 -36 -118 -54 -38
-19 -82 -37 -98 -40 -15 -4 -30 -11 -32 -16 -8 -11 -148 -79 -165 -79 -7 0
-10 -3 -7 -7 4 -3 -1 -12 -11 -19 -16 -13 -16 -13 1 -14 16 0 70 25 192 88 53
27 136 64 154 68 8 1 18 9 22 16 5 7 9 9 9 5 0 -5 43 14 95 42 52 28 104 51
116 51 12 0 78 -28 148 -61 69 -34 175 -83 236 -109 60 -27 173 -78 250 -115
77 -36 155 -73 173 -82 l32 -15 0 -147 c0 -80 5 -153 10 -161 8 -13 25 -7 107
36 56 30 104 62 112 76 18 31 8 78 -17 78 -12 0 -13 -3 -4 -8 6 -5 11 -20 10
-34 -1 -15 -6 -24 -10 -22 -4 3 -16 0 -25 -6 -17 -11 -17 -11 0 -6 34 11 16
-3 -59 -44 -60 -34 -78 -40 -87 -30 -9 10 -9 11 1 6 6 -4 12 -3 12 2 0 6 -7
12 -14 15 -11 4 -13 13 -7 34 9 33 8 109 -2 119 -4 4 -7 26 -7 49 0 61 -24 80
-215 166 -38 17 -110 50 -160 74 -120 57 -162 75 -169 75 -4 0 -67 29 -141 65
-152 73 -209 83 -258 45z"/>
<path d="M1995 2279 c-18 -7 -18 -8 -2 -8 10 -1 16 -5 12 -10 -3 -6 3 -10 12
-10 25 0 77 -13 83 -20 12 -16 58 -39 89 -46 25 -5 30 -10 20 -16 -10 -6 -4
-9 19 -9 17 0 32 -4 32 -8 0 -9 70 -42 88 -42 7 0 12 -5 12 -11 0 -6 7 -9 15
-5 8 3 15 1 15 -4 0 -6 5 -10 10 -10 19 0 10 19 -12 26 -13 3 -63 26 -113 50
-49 24 -95 44 -102 44 -7 0 -13 4 -13 8 0 12 -66 42 -91 42 -14 0 -19 5 -16
14 3 8 -1 17 -9 20 -10 4 -13 2 -8 -7 6 -9 4 -9 -7 -1 -8 7 -22 8 -34 3z"/>
<path d="M1415 2158 c-22 -11 -43 -26 -47 -32 -4 -6 -8 -8 -8 -4 0 4 -13 2
-30 -3 -17 -6 -27 -16 -23 -22 3 -5 1 -7 -4 -4 -14 9 -125 -42 -118 -54 4 -5
-1 -6 -9 -3 -17 6 -73 -21 -100 -48 -10 -11 -25 -17 -33 -14 -8 3 -11 2 -8 -3
3 -6 -2 -14 -11 -19 -13 -7 -14 -11 -3 -17 7 -5 14 -4 17 3 2 7 9 9 14 6 7 -5
8 -2 4 5 -5 8 -3 11 5 10 8 -2 25 3 39 11 14 8 43 24 65 37 22 12 39 27 37 33
-2 8 3 8 15 1 14 -7 30 -3 71 20 28 16 52 26 52 22 0 -4 7 2 15 13 8 10 15 15
15 10 0 -5 8 1 19 12 10 12 21 19 24 16 3 -4 20 -1 37 4 25 9 40 8 76 -6 54
-22 54 -21 -72 -84 -51 -25 -102 -52 -114 -61 -12 -8 -28 -13 -36 -10 -7 3
-21 -2 -29 -11 -9 -9 -22 -16 -28 -16 -13 -1 -57 -35 -57 -44 0 -16 44 1 216
84 102 50 189 90 193 90 4 0 17 7 30 17 22 15 23 17 6 29 -10 7 -30 11 -45 7
-28 -5 -74 12 -66 25 2 4 -6 7 -17 8 -12 0 -29 4 -37 7 -8 3 -33 -3 -55 -15z"/>
<path d="M2526 2031 c-4 -5 0 -12 6 -14 10 -4 10 -6 0 -6 -9 -1 -8 -7 4 -26
22 -33 34 -32 34 5 0 30 -33 60 -44 41z"/>
<path d="M1690 2020 c0 -6 -12 -15 -27 -21 -77 -29 -154 -70 -151 -81 5 -15
13 -19 128 -67 52 -21 143 -62 203 -90 l107 -51 0 -519 0 -520 -23 -18 c-13
-10 -47 -29 -75 -43 -59 -29 -71 -56 -20 -45 40 9 67 24 91 50 11 11 23 19 28
18 4 -2 6 4 3 12 -4 8 0 17 8 20 18 7 17 -40 18 525 0 323 -3 486 -10 488 -15
5 -12 32 4 32 7 0 56 20 107 45 71 33 95 41 97 30 2 -8 -1 -22 -7 -33 -6 -12
-10 -160 -10 -398 0 -208 0 -383 -1 -389 -2 -10 -2 -113 0 -150 1 -15 5 -11
16 14 21 51 19 990 -3 998 -8 3 -18 1 -22 -5 -8 -14 -152 -92 -170 -92 -8 0
-87 36 -175 79 -89 44 -173 82 -188 86 -56 14 -52 30 19 64 54 27 72 31 102
25 20 -4 42 -6 50 -5 7 1 10 -2 7 -7 -4 -6 3 -8 16 -4 14 3 19 1 14 -6 -6 -10
29 -28 46 -24 10 2 96 -37 103 -48 3 -5 12 -7 20 -3 8 3 15 0 15 -6 0 -6 3
-11 8 -10 14 2 52 -13 52 -22 0 -4 23 -7 51 -7 l51 1 -29 15 c-15 9 -42 16
-59 16 -33 2 -316 125 -309 135 2 4 -4 7 -13 7 -9 0 -29 3 -44 7 -17 5 -28 3
-28 -3z"/>
<path d="M1240 1810 c-10 -7 -11 -10 -2 -11 6 -1 15 -3 20 -4 4 -2 17 -6 29
-10 11 -4 56 -24 99 -45 43 -22 82 -37 86 -34 5 3 17 -1 26 -9 19 -17 125 -67
141 -67 6 0 8 7 5 15 -4 8 -12 15 -19 15 -24 0 -154 63 -149 72 3 5 0 8 -7 7
-24 -5 -77 12 -90 27 -6 8 -20 14 -30 14 -11 0 -19 5 -19 10 0 6 -7 10 -15 10
-8 0 -15 5 -15 10 0 13 -40 13 -60 0z"/>
<path d="M427 1723 c-9 -9 -9 -645 1 -659 14 -21 233 -114 238 -101 2 7 3 158
2 337 l-3 325 -55 27 c-64 32 -92 37 -40 7 26 -15 29 -18 10 -13 -41 11 -81
34 -75 44 3 5 -11 16 -31 25 -42 17 -39 17 -47 8z m107 -74 c28 -12 55 -18 67
-14 15 5 20 3 17 -6 -3 -8 1 -19 8 -26 9 -10 12 -82 11 -300 l-2 -288 -25 3
c-43 5 -148 63 -154 85 -6 26 -6 549 0 559 8 13 28 9 78 -13z"/>
<path d="M780 1330 c-1 -126 -1 -266 -1 -310 0 -44 0 -91 1 -105 0 -21 11 -30
73 -57 39 -18 92 -43 117 -55 24 -12 48 -19 52 -15 5 5 7 159 6 343 -3 310 -4
334 -20 333 -10 -1 -16 2 -13 6 3 4 -8 13 -25 18 -23 8 -36 7 -57 -3 l-28 -15
25 -2 c14 0 31 -1 39 0 8 0 21 -6 29 -15 13 -12 15 -62 16 -318 l1 -303 -48
19 c-93 37 -126 58 -134 87 -5 15 -7 139 -6 276 1 195 4 251 15 257 10 7 8 9
-6 9 -19 0 -19 0 -1 14 13 10 28 11 49 5 39 -11 56 -11 56 -1 0 11 -51 35 -58
27 -3 -3 1 -5 8 -5 7 0 11 -2 8 -5 -8 -9 -38 6 -32 16 3 5 -3 6 -12 2 -11 -4
-15 -2 -11 4 6 10 -13 23 -34 23 -5 0 -9 -97 -9 -230z"/>
<path d="M1150 1368 c-6 -307 -6 -616 0 -633 5 -12 23 -27 42 -34 18 -7 68
-30 111 -53 43 -22 85 -37 93 -34 13 5 14 51 12 333 l-3 327 -105 47 c-87 39
-150 59 -150 47z m98 -53 c20 -25 49 -36 36 -12 -4 6 1 4 12 -5 10 -9 31 -20
47 -23 33 -9 30 21 32 -331 l1 -281 -34 9 c-63 17 -151 68 -158 91 -5 12 -8
143 -9 290 l-1 268 36 -5 c32 -4 33 -3 16 10 -11 8 -15 14 -9 14 7 0 20 -11
31 -25z"/>
</g>
</svg>
